<?xml version="1.0" encoding="UTF-8"?><svg xmlns="http://www.w3.org/2000/svg" xmlns:xlink="http://www.w3.org/1999/xlink" width="199.5" zoomAndPan="magnify" viewBox="0 0 199.5 131.999998" height="131.999998" preserveAspectRatio="xMidYMid meet" version="1.0"><defs><clipPath id="clip-0"><path d="M 57.058594 21.226562 L 102 21.226562 L 102 48 L 57.058594 48 Z M 57.058594 21.226562 " clip-rule="nonzero"/></clipPath><clipPath id="clip-1"><path d="M 57.058594 33 L 68 33 L 68 65 L 57.058594 65 Z M 57.058594 33 " clip-rule="nonzero"/></clipPath><clipPath id="clip-2"><path d="M 112 67 L 142.558594 67 L 142.558594 87 L 112 87 Z M 112 67 " clip-rule="nonzero"/></clipPath><clipPath id="clip-3"><path d="M 98 72 L 142.558594 72 L 142.558594 111.226562 L 98 111.226562 Z M 98 72 " clip-rule="nonzero"/></clipPath></defs><g clip-path="url(#clip-0)"><path fill="rgb(100%, 100%, 100%)" d="M 60.074219 34.425781 L 79.316406 45.539062 L 98.554688 34.425781 L 79.316406 23.316406 Z M 79.316406 47.628906 C 79.148438 47.628906 78.980469 47.589844 78.828125 47.5 L 57.644531 35.269531 C 57.34375 35.09375 57.160156 34.773438 57.160156 34.425781 C 57.160156 34.082031 57.34375 33.761719 57.644531 33.585938 L 78.828125 21.355469 C 79.128906 21.183594 79.5 21.183594 79.800781 21.355469 L 100.984375 33.585938 C 101.285156 33.761719 101.46875 34.082031 101.46875 34.425781 C 101.46875 34.773438 101.285156 35.09375 100.984375 35.269531 L 79.800781 47.5 C 79.648438 47.589844 79.480469 47.628906 79.316406 47.628906 " fill-opacity="1" fill-rule="nonzero"/></g><g clip-path="url(#clip-1)"><path fill="rgb(100%, 100%, 100%)" d="M 66.636719 64.773438 C 66.472656 64.773438 66.300781 64.730469 66.152344 64.644531 L 57.160156 59.449219 L 57.160156 34.425781 C 57.160156 33.890625 57.59375 33.457031 58.128906 33.457031 C 58.667969 33.457031 59.101562 33.890625 59.101562 34.425781 L 59.101562 58.328125 L 67.121094 62.960938 C 67.585938 63.230469 67.742188 63.824219 67.476562 64.289062 C 67.296875 64.601562 66.96875 64.773438 66.636719 64.773438 " fill-opacity="1" fill-rule="nonzero"/></g><path fill="rgb(100%, 100%, 100%)" d="M 100.5 57.734375 C 99.960938 57.734375 99.527344 57.296875 99.527344 56.765625 L 99.527344 34.425781 C 99.527344 33.890625 99.960938 33.457031 100.5 33.457031 C 101.035156 33.457031 101.46875 33.890625 101.46875 34.425781 L 101.46875 56.765625 C 101.46875 57.296875 101.035156 57.734375 100.5 57.734375 " fill-opacity="1" fill-rule="nonzero"/><path fill="rgb(100%, 100%, 100%)" d="M 79.316406 55.335938 C 78.777344 55.335938 78.34375 54.902344 78.34375 54.363281 L 78.34375 46.660156 C 78.34375 46.121094 78.777344 45.6875 79.316406 45.6875 C 79.851562 45.6875 80.285156 46.121094 80.285156 46.660156 L 80.285156 54.363281 C 80.285156 54.902344 79.851562 55.335938 79.316406 55.335938 " fill-opacity="1" fill-rule="nonzero"/><g clip-path="url(#clip-2)"><path fill="rgb(100%, 100%, 100%)" d="M 120.207031 86.613281 C 120.042969 86.613281 119.875 86.566406 119.722656 86.480469 L 112.84375 82.507812 C 112.378906 82.238281 112.21875 81.644531 112.488281 81.179688 C 112.753906 80.714844 113.347656 80.558594 113.8125 80.824219 L 120.207031 84.519531 L 139.449219 73.40625 L 131.582031 68.863281 C 131.121094 68.597656 130.960938 68.003906 131.226562 67.539062 C 131.5 67.074219 132.09375 66.917969 132.558594 67.183594 L 141.878906 72.566406 C 142.179688 72.738281 142.363281 73.0625 142.363281 73.40625 C 142.363281 73.753906 142.179688 74.074219 141.878906 74.246094 L 120.695312 86.480469 C 120.546875 86.566406 120.375 86.613281 120.207031 86.613281 " fill-opacity="1" fill-rule="nonzero"/></g><g clip-path="url(#clip-3)"><path fill="rgb(100%, 100%, 100%)" d="M 120.207031 111.226562 L 98.054688 98.429688 L 98.054688 80.148438 C 98.054688 79.613281 98.488281 79.175781 99.023438 79.175781 C 99.5625 79.175781 99.992188 79.613281 99.992188 80.148438 L 99.992188 97.308594 L 120.207031 108.980469 L 140.421875 97.308594 L 140.421875 73.40625 C 140.421875 72.871094 140.855469 72.4375 141.394531 72.4375 C 141.929688 72.4375 142.363281 72.871094 142.363281 73.40625 L 142.363281 98.429688 L 120.207031 111.226562 " fill-opacity="1" fill-rule="nonzero"/></g><path fill="rgb(100%, 100%, 100%)" d="M 120.207031 102.859375 C 119.671875 102.859375 119.238281 102.425781 119.238281 101.890625 L 119.238281 85.640625 C 119.238281 85.105469 119.671875 84.667969 120.207031 84.667969 C 120.746094 84.667969 121.179688 85.105469 121.179688 85.640625 L 121.179688 101.890625 C 121.179688 102.425781 120.746094 102.859375 120.207031 102.859375 " fill-opacity="1" fill-rule="nonzero"/><path fill="rgb(100%, 100%, 100%)" d="M 92.78125 78.75 L 79.617188 78.75 C 73.699219 78.75 68.882812 73.933594 68.882812 68.015625 C 68.882812 62.09375 73.699219 57.277344 79.617188 57.277344 L 92.78125 57.277344 C 98.699219 57.277344 103.515625 62.09375 103.515625 68.015625 C 103.515625 68.550781 103.085938 68.988281 102.546875 68.988281 C 102.011719 68.988281 101.574219 68.550781 101.574219 68.015625 C 101.574219 63.167969 97.632812 59.222656 92.78125 59.222656 L 79.617188 59.222656 C 74.769531 59.222656 70.828125 63.167969 70.828125 68.015625 C 70.828125 72.867188 74.769531 76.808594 79.617188 76.808594 L 92.78125 76.808594 C 93.316406 76.808594 93.753906 77.242188 93.753906 77.78125 C 93.753906 78.320312 93.316406 78.75 92.78125 78.75 " fill-opacity="1" fill-rule="nonzero"/><path fill="rgb(100%, 100%, 100%)" d="M 118.429688 78.75 L 105.265625 78.75 C 99.347656 78.75 94.53125 73.933594 94.53125 68.015625 C 94.53125 67.480469 94.96875 67.042969 95.5 67.042969 C 96.039062 67.042969 96.472656 67.480469 96.472656 68.015625 C 96.472656 72.867188 100.417969 76.808594 105.265625 76.808594 L 118.429688 76.808594 C 123.277344 76.808594 127.222656 72.867188 127.222656 68.015625 C 127.222656 63.167969 123.277344 59.222656 118.429688 59.222656 L 105.265625 59.222656 C 104.730469 59.222656 104.296875 58.785156 104.296875 58.25 C 104.296875 57.714844 104.730469 57.277344 105.265625 57.277344 L 118.429688 57.277344 C 124.347656 57.277344 129.164062 62.09375 129.164062 68.015625 C 129.164062 73.933594 124.347656 78.75 118.429688 78.75 " fill-opacity="1" fill-rule="nonzero"/><path fill="rgb(100%, 100%, 100%)" d="M 118.429688 72.453125 C 117.890625 72.453125 117.457031 72.023438 117.457031 71.484375 C 117.457031 70.945312 117.890625 70.515625 118.429688 70.515625 C 119.808594 70.515625 120.925781 69.390625 120.925781 68.015625 C 120.925781 66.636719 119.808594 65.519531 118.429688 65.519531 L 109.683594 65.519531 C 109.144531 65.519531 108.710938 65.082031 108.710938 64.546875 C 108.710938 64.011719 109.144531 63.574219 109.683594 63.574219 L 118.429688 63.574219 C 120.875 63.574219 122.867188 65.566406 122.867188 68.015625 C 122.867188 70.464844 120.875 72.453125 118.429688 72.453125 " fill-opacity="1" fill-rule="nonzero"/><path fill="rgb(100%, 100%, 100%)" d="M 87.667969 72.453125 L 78.921875 72.453125 C 76.472656 72.453125 74.484375 70.464844 74.484375 68.015625 C 74.484375 65.566406 76.472656 63.574219 78.921875 63.574219 C 79.457031 63.574219 79.894531 64.011719 79.894531 64.546875 C 79.894531 65.082031 79.457031 65.519531 78.921875 65.519531 C 77.542969 65.519531 76.421875 66.636719 76.421875 68.015625 C 76.421875 69.390625 77.542969 70.515625 78.921875 70.515625 L 87.667969 70.515625 C 88.203125 70.515625 88.640625 70.945312 88.640625 71.484375 C 88.640625 72.023438 88.203125 72.453125 87.667969 72.453125 " fill-opacity="1" fill-rule="nonzero"/></svg>