<?xml version="1.0" encoding="UTF-8"?><svg xmlns="http://www.w3.org/2000/svg" xmlns:xlink="http://www.w3.org/1999/xlink" width="199.5" zoomAndPan="magnify" viewBox="0 0 199.5 131.999998" height="131.999998" preserveAspectRatio="xMidYMid meet" version="1.0"><defs><clipPath id="clip-0"><path d="M 62 56 L 144 56 L 144 111.574219 L 62 111.574219 Z M 62 56 " clip-rule="nonzero"/></clipPath></defs><g clip-path="url(#clip-0)"><path fill="rgb(100%, 100%, 100%)" d="M 63.472656 90.070312 C 63.089844 90.453125 62.835938 90.964844 62.835938 91.605469 L 62.707031 104.40625 L 67.050781 104.40625 L 67.175781 96.980469 C 75.605469 106.453125 87.609375 111.574219 99.871094 111.574219 C 106.257812 111.574219 112.640625 110.164062 118.644531 107.347656 C 136.777344 98.515625 146.738281 77.910156 142.140625 58.199219 C 141.886719 57.046875 140.738281 56.277344 139.585938 56.535156 C 138.4375 56.789062 137.671875 57.941406 137.925781 59.09375 C 141.886719 76.886719 132.945312 95.574219 116.601562 103.507812 C 100.765625 111.1875 81.351562 107.09375 69.988281 93.78125 L 77.90625 93.910156 L 77.90625 89.558594 L 65.007812 89.429688 C 64.496094 89.429688 63.855469 89.558594 63.472656 90.070312 Z M 63.472656 90.070312 " fill-opacity="1" fill-rule="nonzero"/></g><path fill="rgb(100%, 100%, 100%)" d="M 57.214844 78.039062 C 57.472656 79.0625 58.367188 79.703125 59.257812 79.703125 C 59.386719 79.703125 59.644531 79.703125 59.769531 79.703125 C 60.917969 79.445312 61.6875 78.292969 61.429688 77.140625 C 57.214844 59.351562 66.15625 40.789062 82.503906 32.855469 C 98.339844 25.175781 117.496094 29.269531 128.988281 42.328125 L 119.28125 42.328125 L 119.28125 46.679688 L 132.179688 46.679688 C 133.328125 46.679688 134.351562 45.65625 134.351562 44.503906 L 134.351562 31.574219 L 130.007812 31.574219 L 130.007812 37.207031 C 117.109375 24.40625 97.1875 20.824219 80.585938 28.886719 C 62.453125 37.589844 52.617188 58.324219 57.214844 78.039062 Z M 57.214844 78.039062 " fill-opacity="1" fill-rule="nonzero"/><path fill="rgb(100%, 100%, 100%)" d="M 99.105469 93.910156 C 113.023438 93.910156 124.390625 82.515625 124.390625 68.566406 C 124.390625 54.613281 113.023438 43.222656 99.105469 43.222656 C 85.183594 43.222656 73.816406 54.613281 73.816406 68.566406 C 73.816406 82.515625 85.183594 93.910156 99.105469 93.910156 Z M 103.191406 71.382812 L 97.0625 70.101562 L 94.125 69.460938 L 93.613281 69.332031 L 93.359375 69.207031 C 90.421875 67.667969 88.886719 65.75 88.886719 63.574219 L 88.886719 63.316406 C 88.886719 59.476562 92.464844 56.40625 96.933594 56.40625 L 97.445312 56.40625 L 97.445312 53.460938 L 101.785156 53.460938 L 101.785156 56.40625 C 106.128906 56.535156 109.703125 59.605469 109.703125 63.316406 L 105.363281 63.316406 C 105.363281 61.910156 103.703125 60.757812 101.660156 60.757812 L 96.933594 60.757812 C 94.890625 60.757812 93.230469 61.910156 93.230469 63.316406 L 93.230469 63.574219 C 93.230469 63.703125 93.613281 64.34375 95.144531 65.238281 L 99.871094 66.132812 L 104.46875 67.03125 L 104.851562 67.15625 L 105.105469 67.285156 C 108.9375 69.207031 109.703125 71.511719 109.703125 73.046875 L 109.703125 73.300781 C 109.703125 77.140625 106.257812 80.214844 101.914062 80.214844 L 101.914062 83.414062 L 97.570312 83.414062 L 97.570312 80.339844 L 97.0625 80.339844 C 92.589844 80.339844 89.015625 77.269531 89.015625 73.429688 L 93.359375 73.429688 C 93.359375 74.835938 95.019531 75.988281 97.0625 75.988281 L 101.785156 75.988281 C 103.828125 75.988281 105.488281 74.835938 105.488281 73.429688 L 105.488281 73.171875 C 105.105469 73.046875 104.851562 72.277344 103.191406 71.382812 Z M 103.191406 71.382812 " fill-opacity="1" fill-rule="nonzero"/></svg>